<svg width="32" height="32" xmlns="http://www.w3.org/2000/svg">
 <g>
  <title>background</title>
  <rect x="-1" y="-1" width="34" height="34" id="canvas_background" fill="none"/>
 </g>

 <g>
  <title>Layer 1</title>
  <path stroke="null" d="m2.365752,5.636867l27.441475,0c1.262296,0 2.286784,-1.172 2.286784,-2.616059s-1.024489,-2.616046 -2.286784,-2.616046l-27.441475,0c-1.262296,0 -2.286784,1.171987 -2.286784,2.616046s1.024489,2.616059 2.286784,2.616059zm27.441475,5.232092l-27.441475,0c-1.262296,0 -2.286784,1.172 -2.286784,2.616059s1.024489,2.616046 2.286784,2.616046l27.441475,0c1.262296,0 2.286784,-1.171987 2.286784,-2.616046s-1.024489,-2.616059 -2.286784,-2.616059zm0,10.46421l-27.441475,0c-1.262296,0 -2.286784,1.171987 -2.286784,2.616046s1.024489,2.616046 2.286784,2.616046l27.441475,0c1.262296,0 2.286784,-1.171987 2.286784,-2.616046s-1.024489,-2.616046 -2.286784,-2.616046z" id="svg_1"/>
 </g>
</svg>