<svg width="461.001" height="461.001" xmlns="http://www.w3.org/2000/svg">
 <g>
  <title>background</title>
  <rect x="-1" y="-1" width="56.881064" height="56.881064" id="canvas_background" fill="none"/>
 </g>

 <g>
  <title>Layer 1</title>
  <g stroke="null" id="svg_1">
   <path stroke="null" d="m363.751185,1.216918l-267.114018,0c-52.407323,0 -94.891766,40.931448 -94.891766,91.42305l0,128.647693c0,50.491603 42.484442,91.42305 94.891766,91.42305l267.114018,0c52.407323,0 94.891766,-40.931448 94.891766,-91.42305l0,-128.647693c0,-50.491603 -42.484442,-91.42305 -94.891766,-91.42305zm-64.17464,162.006068l-124.937918,57.409635c-3.329101,1.529701 -7.174564,-0.808775 -7.174564,-4.361845l0,-118.407669c0,-3.603678 3.946555,-5.93929 7.282594,-4.310282l124.937918,60.998035c3.714638,1.813297 3.650217,6.945722 -0.10803,8.672127l0,-0.000001z" fill="#787878" id="svg_2"/>
  </g>
 </g>
</svg>